<svg width="780" height="530" viewBox="0 0 780 530" fill="none" xmlns="http://www.w3.org/2000/svg">
<g clip-path="url(#clip0)">
<path d="M62.6198 146.429C97.2038 146.429 125.24 124.262 125.24 96.917C125.24 69.5724 97.2038 47.4052 62.6198 47.4052C28.0359 47.4052 0 69.5724 0 96.917C0 124.262 28.0359 146.429 62.6198 146.429Z" fill="#FF6584"/>
<path d="M726.497 415.452C726.212 423.88 724.426 432.234 721.193 440.268C721.12 440.454 721.042 440.638 720.965 440.824H701.172C701.193 440.657 701.214 440.471 701.235 440.268C702.555 428.272 710.164 355.259 701.066 342.773C701.861 343.786 728.032 377.334 726.497 415.452Z" fill="#E6E6E6"/>
<path d="M725.012 440.268C724.847 440.454 724.674 440.641 724.498 440.824H709.65C709.763 440.666 709.893 440.479 710.044 440.268C712.497 436.767 719.758 426.302 726.497 415.452C733.74 403.792 740.385 391.69 739.825 387.31C739.998 388.298 745.009 418.413 725.012 440.268Z" fill="#E6E6E6"/>
<path d="M780 439.758H210.844V441.23H780V439.758Z" fill="#E6E6E6"/>
<path d="M575.157 485.725L577.922 467.69L656.029 451.841L647.043 430.527C653.302 416.332 664.291 409.373 684.368 416.317L718.903 433.28C722.26 434.928 724.994 437.26 726.82 440.03C728.646 442.801 729.497 445.908 729.284 449.027C729.073 452.159 727.796 455.188 725.588 457.794C723.381 460.4 720.324 462.486 716.742 463.832C678.08 478.322 628.805 483.866 575.157 485.725Z" fill="#FFB8B8"/>
<path d="M579.996 491.191L555.803 488.458L533.176 492.109C531.789 492.333 530.358 492.316 528.981 492.06C527.604 491.803 526.313 491.313 525.199 490.624C524.085 489.935 523.173 489.062 522.527 488.067C521.881 487.072 521.515 485.977 521.456 484.86C521.391 483.609 521.71 482.365 522.386 481.234C523.063 480.103 524.076 479.119 525.34 478.366L560.798 457.243C563.839 455.432 567.597 454.537 571.397 454.718C575.198 454.9 578.792 456.147 581.535 458.235L590.364 464.958C584.046 468.057 579.347 472.707 576.54 479.167C582.612 481.807 583.764 485.814 579.996 491.191Z" fill="#2F2E41"/>
<path d="M603.102 301.841C615.458 301.841 625.475 293.921 625.475 284.151C625.475 274.381 615.458 266.461 603.102 266.461C590.745 266.461 580.728 274.381 580.728 284.151C580.728 293.921 590.745 301.841 603.102 301.841Z" fill="#FFB8B8"/>
<path d="M638.057 319.036L587.945 335.705C592.017 319.536 594.047 304.807 587.945 295.809L620.086 292.803C618.49 299.718 626.622 308.979 638.057 319.036Z" fill="#FFB8B8"/>
<path d="M553.039 485.179L534.376 484.086C522.943 446.39 517.089 410.759 519.644 378.242C520.005 373.495 522.678 369.043 527.101 365.82C531.524 362.597 537.354 360.854 543.367 360.957C549.146 361.061 554.667 362.864 558.854 366.014L582.988 384.173C593.751 392.208 602.106 402.044 607.442 412.961C614.277 427.115 611.823 435.05 595.506 433.702C585.31 432.804 575.932 428.862 569.288 422.681L551.656 406.48L553.039 485.179Z" fill="#FFB8B8"/>
<path d="M538.586 529.973C536.14 529.847 533.763 529.277 531.641 528.308C529.518 527.339 527.706 525.996 526.345 524.384C524.984 522.772 524.111 520.934 523.793 519.012C523.475 517.09 523.722 515.136 524.513 513.302L528.155 504.854L530.92 483.539C535.179 476.668 541.211 477.696 548.2 482.993C552.644 482.648 553.597 479.135 553.039 474.248L567.051 489.163C568.25 490.439 568.995 491.947 569.207 493.528C569.418 495.109 569.09 496.706 568.256 498.153L554.154 522.612C552.81 524.943 550.601 526.895 547.82 528.21C545.04 529.525 541.819 530.14 538.586 529.973Z" fill="#2F2E41"/>
<path d="M715.127 431.347C689.552 442.823 681.537 443.156 656.029 451.295L633.91 441.457C607.933 449.052 589.711 438.641 569.973 423.149C582.89 406.138 577.177 384.034 585.18 384.346L680.912 408.119L685.06 416.317L715.127 431.347Z" fill="#2F2E41"/>
<path d="M684.368 413.585C650.566 425.153 614.17 412.905 583.106 385.985L562.537 320.303C562.294 319.579 562.24 318.824 562.381 318.084C562.521 317.343 562.851 316.634 563.352 315.998C563.852 315.363 564.512 314.815 565.29 314.389C566.068 313.962 566.949 313.667 567.877 313.52L591.746 309.746L603.497 324.502L626.998 308.106L651.956 314.557C655.274 315.415 658.236 316.97 660.524 319.055C662.811 321.14 664.34 323.677 664.945 326.396L684.368 413.585Z" fill="#F9A826"/>
<path opacity="0.2" d="M630.678 469.267C628.853 468.717 627.222 467.83 625.921 466.679C624.621 465.528 623.688 464.147 623.202 462.652C622.715 461.158 622.689 459.592 623.126 458.088C623.563 456.584 624.45 455.184 625.713 454.007L641.513 439.271L652.573 444.19L646.878 462.547C646.466 463.875 645.701 465.119 644.635 466.196C643.569 467.273 642.225 468.159 640.694 468.794C639.162 469.43 637.477 469.801 635.75 469.882C634.023 469.963 632.294 469.754 630.678 469.267Z" fill="black"/>
<path d="M630.678 467.081C628.853 466.531 627.222 465.644 625.921 464.493C624.621 463.342 623.688 461.961 623.202 460.466C622.715 458.972 622.689 457.406 623.126 455.902C623.563 454.398 624.45 452.998 625.713 451.821L641.513 437.085L652.573 442.004L646.878 460.361C646.466 461.689 645.701 462.933 644.635 464.01C643.569 465.087 642.225 465.973 640.694 466.608C639.162 467.244 637.477 467.615 635.75 467.696C634.023 467.777 632.294 467.568 630.678 467.081Z" fill="#FFB8B8"/>
<path d="M655.338 446.376L638.749 437.632L662.941 386.805L653.955 315.211L662.152 319.261C666.551 321.435 670.346 324.293 673.306 327.662C676.266 331.03 678.33 334.839 679.373 338.857L692.663 390.084C686.848 413.696 677.155 434.472 655.338 446.376Z" fill="#F9A826"/>
<path opacity="0.2" d="M645.315 365.218L653.61 398.009L646.787 417.187L645.315 365.218Z" fill="black"/>
<path d="M581.221 282.634C581.221 282.634 568.328 249.272 607.732 256.269C613.844 257.354 619.124 260.163 623.325 263.838C623.701 264.159 624.162 264.411 624.675 264.577C625.187 264.742 625.74 264.817 626.293 264.796C632.588 264.796 636.476 282.581 623.887 290.402C623.887 290.402 626.455 279.878 621.786 276.292C620.946 275.685 620.244 274.97 619.708 274.176C616.669 269.329 606.453 267.738 599.408 268.151C595.811 268.361 595.496 273.32 591.514 272.627C582.454 271.051 579.562 279.35 581.221 282.634Z" fill="#2F2E41"/>
<path d="M620.881 332.152L620.621 333.662L619.011 342.983L616.374 358.247L615.714 362.069C615.663 362.36 615.481 362.628 615.2 362.821C614.92 363.015 614.56 363.122 614.188 363.122H596.604C596.232 363.122 595.873 363.016 595.592 362.823C595.312 362.63 595.129 362.363 595.078 362.072L594.406 358.247L591.725 342.983L590.086 333.656L589.823 332.155C589.792 331.982 589.809 331.807 589.872 331.64C589.935 331.473 590.042 331.319 590.186 331.188C590.331 331.056 590.509 330.951 590.71 330.879C590.91 330.807 591.128 330.769 591.348 330.769H619.355C619.575 330.769 619.793 330.807 619.993 330.879C620.193 330.951 620.371 331.056 620.516 331.187C620.66 331.317 620.768 331.471 620.831 331.638C620.894 331.804 620.911 331.98 620.881 332.152Z" fill="#E6E6E6"/>
<path d="M593.203 326.725H617.591C617.793 326.725 617.994 326.757 618.18 326.818C618.367 326.879 618.537 326.969 618.68 327.082C618.823 327.195 618.937 327.329 619.014 327.477C619.091 327.625 619.131 327.783 619.131 327.943V329.552C619.131 329.875 618.969 330.184 618.68 330.413C618.391 330.641 618 330.769 617.591 330.769H593.203C592.795 330.769 592.403 330.641 592.114 330.413C591.826 330.184 591.663 329.875 591.663 329.552V327.943C591.663 327.783 591.703 327.625 591.781 327.477C591.858 327.329 591.971 327.195 592.114 327.082C592.257 326.969 592.427 326.879 592.614 326.818C592.801 326.757 593.001 326.725 593.203 326.725Z" fill="#3F3D56"/>
<path d="M623.085 332.791C611.328 333.806 599.467 333.806 587.71 332.791C587.508 332.791 587.307 332.76 587.121 332.699C586.934 332.638 586.764 332.548 586.621 332.435C586.478 332.322 586.365 332.187 586.287 332.04C586.21 331.892 586.17 331.734 586.17 331.574V329.965C586.17 329.805 586.21 329.647 586.287 329.499C586.365 329.351 586.478 329.217 586.621 329.104C586.764 328.991 586.934 328.901 587.121 328.84C587.307 328.779 587.508 328.747 587.71 328.747C599.457 329.889 611.337 329.889 623.085 328.747C623.493 328.747 623.885 328.876 624.174 329.104C624.463 329.332 624.625 329.642 624.625 329.965V331.574C624.625 331.897 624.463 332.206 624.174 332.435C623.885 332.663 623.493 332.791 623.085 332.791Z" fill="#3F3D56"/>
<path d="M604.684 351.478C608.355 351.478 611.331 349.125 611.331 346.223C611.331 343.32 608.355 340.967 604.684 340.967C601.012 340.967 598.036 343.32 598.036 346.223C598.036 349.125 601.012 351.478 604.684 351.478Z" fill="white"/>
<path d="M621.772 357.279C621.974 358.815 621.707 360.366 620.994 361.803C620.281 363.24 619.143 364.52 617.674 365.537C616.206 366.554 614.45 367.278 612.555 367.648C610.659 368.018 608.68 368.023 606.781 367.662L583.023 363.152L583.591 353.129L606.883 348.874C608.569 348.566 610.317 348.545 612.014 348.812C613.711 349.079 615.316 349.628 616.724 350.423C618.132 351.218 619.31 352.24 620.18 353.422C621.05 354.604 621.593 355.919 621.772 357.279Z" fill="#FFB8B8"/>
<path d="M589.673 364.944L525.554 366.212C523.24 366.257 520.941 365.903 518.817 365.175C516.693 364.446 514.795 363.36 513.257 361.992C511.718 360.624 510.575 359.007 509.907 357.255C509.24 355.502 509.063 353.655 509.391 351.843C509.904 349.003 511.627 346.387 514.277 344.428L544.466 322.098C550.065 317.957 557.041 315.164 564.577 314.047L575.157 312.478L581.378 349.642L545.435 346.362L587.599 350.188L589.673 364.944Z" fill="#F9A826"/>
<path d="M505.203 473.996H341.513C340.057 473.996 338.661 473.539 337.632 472.725C336.602 471.911 336.024 470.807 336.024 469.656C395.362 464.204 453.584 464.204 510.691 469.656C510.691 470.807 510.113 471.911 509.084 472.725C508.054 473.539 506.658 473.996 505.203 473.996Z" fill="#2F2E41"/>
<path d="M510.691 469.912L336.024 469.656L356.267 442.725L356.364 442.597V383.242C356.364 382.522 356.543 381.809 356.892 381.143C357.241 380.477 357.752 379.873 358.396 379.363C359.04 378.854 359.805 378.45 360.647 378.174C361.489 377.898 362.391 377.757 363.302 377.757H482.444C483.355 377.757 484.258 377.898 485.1 378.174C485.941 378.45 486.706 378.854 487.351 379.363C487.995 379.873 488.506 380.477 488.855 381.143C489.203 381.809 489.383 382.522 489.383 383.242V443.005L510.691 469.912Z" fill="#3F3D56"/>
<path d="M363.144 381.586C362.545 381.586 361.97 381.775 361.547 382.11C361.123 382.445 360.885 382.899 360.884 383.373V437.491C360.885 437.965 361.123 438.419 361.547 438.754C361.97 439.089 362.545 439.278 363.144 439.278H483.571C484.17 439.278 484.745 439.089 485.168 438.754C485.592 438.419 485.83 437.965 485.831 437.491V383.373C485.83 382.899 485.592 382.445 485.168 382.11C484.744 381.775 484.17 381.586 483.571 381.586L363.144 381.586Z" fill="white"/>
<path d="M363.936 446.426C363.75 446.426 363.569 446.468 363.413 446.547C363.257 446.626 363.133 446.739 363.056 446.872L356.818 457.593C356.75 457.71 356.72 457.838 356.732 457.967C356.743 458.095 356.795 458.219 356.882 458.327C356.97 458.435 357.091 458.524 357.233 458.585C357.376 458.647 357.535 458.679 357.698 458.679H488.871C489.036 458.679 489.199 458.646 489.343 458.582C489.487 458.519 489.608 458.427 489.695 458.316C489.782 458.205 489.831 458.078 489.839 457.948C489.846 457.818 489.811 457.688 489.737 457.571L482.957 446.849C482.877 446.722 482.754 446.615 482.601 446.54C482.448 446.465 482.271 446.426 482.091 446.426L363.936 446.426Z" fill="#2F2E41"/>
<path d="M422.873 380.692C423.676 380.692 424.326 380.178 424.326 379.544C424.326 378.909 423.676 378.395 422.873 378.395C422.071 378.395 421.42 378.909 421.42 379.544C421.42 380.178 422.071 380.692 422.873 380.692Z" fill="white"/>
<path d="M409.98 460.722C409.767 460.722 409.56 460.777 409.391 460.88C409.222 460.982 409.1 461.126 409.045 461.288L407.48 465.883C407.441 465.997 407.436 466.116 407.465 466.231C407.494 466.346 407.556 466.455 407.647 466.548C407.737 466.642 407.853 466.717 407.987 466.769C408.12 466.821 408.267 466.848 408.415 466.848H438.171C438.326 466.848 438.478 466.819 438.615 466.763C438.752 466.707 438.871 466.626 438.96 466.527C439.05 466.427 439.108 466.312 439.13 466.191C439.152 466.071 439.137 465.947 439.086 465.832L437.075 461.237C437.009 461.087 436.885 460.956 436.721 460.864C436.557 460.771 436.361 460.722 436.159 460.722H409.98Z" fill="#2F2E41"/>
<path d="M489.382 441.703V442.725H356.267L356.367 442.597V441.703H489.382Z" fill="#2F2E41"/>
<path d="M299.867 407.647C300.233 418.449 302.522 429.157 306.665 439.454C306.76 439.693 306.859 439.929 306.958 440.168H332.328C332.3 439.954 332.273 439.715 332.246 439.454C330.555 424.078 320.802 330.497 332.463 314.494C331.443 315.792 297.901 358.791 299.867 407.647Z" fill="#E6E6E6"/>
<path d="M301.771 439.454C301.983 439.693 302.204 439.932 302.43 440.168H321.461C321.317 439.964 321.15 439.725 320.956 439.454C317.812 434.967 308.506 421.553 299.867 407.647C290.584 392.703 282.068 377.192 282.785 371.578C282.564 372.844 276.14 411.442 301.771 439.454Z" fill="#E6E6E6"/>
<path d="M344.694 115.072L355.009 108.55C346.996 107.851 343.704 111.306 342.356 114.041C336.097 111.985 329.282 114.679 329.282 114.679L349.919 120.602C348.878 118.404 347.065 116.485 344.694 115.072Z" fill="#3F3D56"/>
<path d="M655.349 81.4981L665.663 74.9755C657.65 74.2765 654.358 77.7317 653.011 80.4665C646.751 78.4113 639.936 81.1048 639.936 81.1048L660.573 87.0284C659.532 84.8297 657.72 82.9113 655.349 81.4981Z" fill="#3F3D56"/>
<path d="M595.956 168.056L606.27 161.533C598.258 160.834 594.966 164.289 593.618 167.024C587.358 164.969 580.544 167.662 580.544 167.662L601.181 173.586C600.14 171.387 598.327 169.469 595.956 168.056Z" fill="#3F3D56"/>
<path d="M191.079 296.3C241.696 289.085 267.633 217.037 249.013 135.378C230.392 53.718 174.264 -6.63056 123.647 0.585164C73.0304 7.80089 47.0927 79.8485 65.7135 161.508C84.3344 243.167 140.462 303.516 191.079 296.3Z" fill="#E6E6E6"/>
<path d="M142.111 120.321C150.303 137.933 157.592 155.784 163.979 173.875C170.354 191.95 175.807 210.206 180.339 228.645C184.87 247.078 188.462 265.635 191.116 284.315C193.757 302.962 195.453 321.673 196.206 340.447C196.954 359.202 196.747 377.96 195.586 396.721C195.443 399.019 195.286 401.317 195.114 403.615C194.939 405.968 199.569 405.96 199.743 403.615C201.142 384.794 201.581 365.95 201.06 347.083C200.536 328.324 199.063 309.601 196.64 290.915C194.212 272.175 190.848 253.529 186.548 234.978C182.246 216.435 177.008 198.048 170.834 179.818C164.664 161.608 157.57 143.615 149.551 125.839C148.573 123.671 147.581 121.508 146.575 119.348C145.556 117.156 141.08 118.104 142.111 120.321V120.321Z" fill="#3F3D56"/>
<path d="M174.01 189.601L194.52 153.594L200.301 143.445C200.593 143.022 200.669 142.528 200.515 142.062C200.36 141.597 199.987 141.196 199.471 140.941C198.939 140.7 198.309 140.633 197.717 140.756C197.124 140.879 196.617 141.181 196.304 141.597L175.794 177.605L170.013 187.754C169.721 188.176 169.645 188.671 169.799 189.136C169.953 189.602 170.327 190.003 170.843 190.258C171.374 190.499 172.004 190.565 172.597 190.442C173.189 190.32 173.697 190.017 174.01 189.601H174.01Z" fill="#3F3D56"/>
<path d="M178.542 214.204L131.775 200.34L118.594 196.433C118.002 196.308 117.372 196.372 116.839 196.611C116.307 196.85 115.914 197.245 115.747 197.711C115.597 198.179 115.681 198.674 115.983 199.094C116.284 199.513 116.779 199.824 117.363 199.962L164.13 213.826L177.311 217.734C177.903 217.859 178.533 217.795 179.066 217.556C179.599 217.317 179.991 216.921 180.159 216.456C180.309 215.988 180.224 215.492 179.923 215.073C179.621 214.653 179.127 214.342 178.542 214.204V214.204Z" fill="#3F3D56"/>
<path d="M142.124 410.599C142.124 410.599 198.449 395.958 250.915 410.599H142.124Z" fill="#E6E6E6"/>
<path d="M394.153 403.662C405.314 403.57 416.474 403.412 427.634 403.292C431.355 403.252 435.076 403.217 438.797 403.187C442.003 403.161 442.011 399.219 438.797 399.245C427.635 399.337 416.476 399.495 405.315 399.615C401.594 399.655 397.874 399.69 394.153 399.72C390.947 399.747 390.938 403.688 394.153 403.662Z" fill="#F9A826"/>
<path d="M394.153 412.859L439.262 412.49L452.091 412.385C455.297 412.358 455.305 408.417 452.091 408.443L406.982 408.812L394.153 408.918C390.947 408.944 390.939 412.886 394.153 412.859Z" fill="#F9A826"/>
<path d="M394.153 422.057L439.262 421.687L452.091 421.582C455.297 421.556 455.305 417.614 452.091 417.64L406.982 418.01L394.153 418.115C390.947 418.141 390.939 422.083 394.153 422.057Z" fill="#F9A826"/>
</g>
<defs>
<clipPath id="clip0">
<rect width="780" height="530" fill="white"/>
</clipPath>
</defs>
</svg>
