<svg width="60" height="60" viewBox="0 0 60 60" fill="none" xmlns="http://www.w3.org/2000/svg">
<g clip-path="url(#clip0)">
<path d="M46.4927 13.4585C46.2397 13.2055 45.9075 13.0789 45.575 13.0789C45.2428 13.0789 44.9105 13.2054 44.6575 13.4584C44.1515 13.9644 44.1515 14.7877 44.6575 15.2936C45.1636 15.7999 45.9868 15.7996 46.4926 15.2936V15.2935C46.7378 15.0484 46.8728 14.7226 46.8728 14.3759C46.8729 14.0295 46.7379 13.7036 46.4927 13.4585Z" fill="#F9A826"/>
<path d="M25.0089 32.5042C24.6576 32.1529 24.3258 31.9829 24.0131 31.9932C23.7006 32.0038 23.3897 32.1635 23.0807 32.4726L22.0375 33.5158L23.9973 35.4756L25.0405 34.4324C25.3495 34.1234 25.5093 33.8126 25.5199 33.5C25.5305 33.1876 25.3602 32.8557 25.0089 32.5042Z" fill="#F9A826"/>
<path d="M59.9128 23.1612L57.0541 7.3497C56.6509 5.11881 54.8811 3.34893 52.6502 2.94557L36.8386 0.0870232C35.0764 -0.231609 33.2695 0.334171 32.0037 1.59991L1.60019 32.0036C0.568358 33.0354 0 34.4073 0 35.8665C0 37.3257 0.568241 38.6978 1.60019 39.7295L20.2705 58.3996C21.3023 59.4316 22.6742 59.9998 24.1334 59.9998C25.5926 59.9998 26.9647 59.4316 27.9964 58.3996L58.3999 27.9961C59.6657 26.7303 60.2312 24.9228 59.9128 23.1612ZM22.5062 45.3218C22.4323 45.5713 22.2832 45.8082 22.0585 46.0329C21.8335 46.2579 21.5967 46.4071 21.3473 46.4806C21.0979 46.5546 20.8927 46.5105 20.7309 46.3488L14.0402 39.6581C13.8787 39.4966 13.8241 39.3019 13.8768 39.0736C13.9293 38.8453 14.0542 38.6328 14.2509 38.436L17.9072 34.7797C18.0686 34.6182 18.262 34.5655 18.4865 34.6215C18.7115 34.6778 18.9185 34.8007 19.1082 34.9906C19.3119 35.1943 19.4402 35.4103 19.4929 35.6385C19.5454 35.867 19.4945 36.0582 19.34 36.2127L16.6109 38.9418L18.3917 40.7225L19.9828 39.1315C20.1371 38.9771 20.3216 38.919 20.5359 38.9576C20.7501 38.9962 20.9451 39.1036 21.1205 39.279C21.2821 39.4406 21.384 39.6268 21.4262 39.8374C21.4681 40.0481 21.4086 40.2344 21.2471 40.3959L19.6561 41.987L22.3744 44.7054C22.5363 44.8671 22.58 45.0725 22.5062 45.3218ZM31.4623 36.2075C31.4238 36.6115 31.2814 36.9364 31.0355 37.1823C30.7896 37.4283 30.5123 37.5019 30.2031 37.4035L25.957 36.0444L25.2616 36.7398L27.8008 39.279C27.9625 39.4407 28.0062 39.6463 27.9325 39.8955C27.8586 40.1451 27.7094 40.3821 27.4848 40.6068C27.2599 40.8316 27.0229 40.9808 26.7737 41.0544C26.5242 41.1285 26.319 41.0844 26.1573 40.9227L19.456 34.2214C19.3225 34.088 19.2542 33.9248 19.2506 33.7314C19.2472 33.5384 19.3193 33.3679 19.4668 33.2204L21.6479 31.0393C23.3758 29.3114 24.9916 29.1989 26.4948 30.7021C27.5905 31.798 27.8784 32.936 27.3587 34.1159L30.9726 35.1592C31.0571 35.1732 31.1377 35.2189 31.2149 35.2962C31.4185 35.5001 31.501 35.8037 31.4623 36.2075ZM37.2838 30.8077L33.5329 34.5586C33.3361 34.7554 33.1238 34.8799 32.8953 34.9327C32.667 34.9854 32.4724 34.9309 32.3106 34.7692L25.62 28.0785C25.4585 27.917 25.4039 27.7222 25.4566 27.494C25.5092 27.2656 25.6339 27.0532 25.8307 26.8563L29.5817 23.1054C29.7432 22.9439 29.9365 22.8912 30.1611 22.9472C30.3861 23.0035 30.593 23.1264 30.7828 23.3162C30.9864 23.52 31.1147 23.736 31.1675 23.9642C31.22 24.1927 31.169 24.3839 31.0145 24.5384L28.1907 27.3622L29.9715 29.143L31.5521 27.5624C31.7064 27.4081 31.891 27.3499 32.1052 27.3885C32.3194 27.4272 32.5145 27.5344 32.69 27.7098C32.8516 27.8714 32.9534 28.0576 32.9955 28.2683C33.0374 28.479 32.9779 28.6654 32.8164 28.8269L31.2358 30.4075L33.0269 32.1986L35.8508 29.3747C36.0051 29.2204 36.1967 29.1694 36.425 29.2219C36.6534 29.2747 36.8691 29.4028 37.0729 29.6066C37.2624 29.7961 37.3856 30.0034 37.4418 30.2282C37.4982 30.4531 37.4453 30.6461 37.2838 30.8077ZM42.9628 25.1285L39.2117 28.8797C39.0149 29.0765 38.8025 29.2011 38.5741 29.2538C38.3458 29.3065 38.1511 29.252 37.9894 29.0903L31.2987 22.3996C31.1372 22.2381 31.0826 22.0433 31.1354 21.8151C31.188 21.5867 31.3127 21.3743 31.5094 21.1775L35.2604 17.4265C35.4218 17.265 35.6152 17.2123 35.8397 17.2683C36.0646 17.3247 36.2717 17.4475 36.4614 17.6373C36.6651 17.8411 36.7934 18.0571 36.8461 18.2853C36.8986 18.5138 36.8477 18.705 36.6932 18.8595L33.8694 21.6833L35.6501 23.4641L37.2308 21.8835C37.3851 21.7292 37.5695 21.671 37.7839 21.7096C37.9981 21.7483 38.1931 21.8556 38.3685 22.031C38.5301 22.1926 38.632 22.3789 38.6741 22.5894C38.7161 22.8001 38.6566 22.9865 38.4951 23.148L36.9145 24.7286L38.7056 26.5197L41.5294 23.6958C41.6838 23.5415 41.8754 23.4906 42.1036 23.5431C42.3321 23.5958 42.5479 23.7239 42.7517 23.9277C42.9412 24.1172 43.0642 24.3246 43.1206 24.5493C43.1773 24.7739 43.1245 24.9671 42.9628 25.1285ZM48.9809 17.7818C48.042 18.7207 46.8086 19.1902 45.5753 19.1902C44.3418 19.1902 43.1085 18.7207 42.1696 17.7817C40.2916 15.9038 40.2916 12.8482 42.1696 10.9703C44.0474 9.0924 47.1031 9.09228 48.9809 10.9703C49.8907 11.88 50.3916 13.0895 50.3916 14.376C50.3916 15.6625 49.8906 16.872 48.9809 17.7818Z" fill="#F9A826"/>
</g>
<defs>
<clipPath id="clip0">
<rect width="60" height="60" fill="white"/>
</clipPath>
</defs>
</svg>
