<svg width="788" height="805" viewBox="0 0 788 805" fill="none" xmlns="http://www.w3.org/2000/svg">
<path d="M371.501 6.7165L347.389 21.1124L50.3155 198.473L26.2028 212.869C14.5026 219.873 5.81921 231.669 2.0577 245.67C-1.70381 259.671 -0.236256 274.733 6.13841 287.551L227.362 731.202C233.763 744.005 244.544 753.506 257.339 757.622C270.134 761.738 283.899 760.132 295.614 753.157L295.676 753.12L640.85 547.042L640.912 547.005C652.612 540.001 661.296 528.204 665.057 514.203C668.819 500.203 667.351 485.141 660.977 472.323L439.753 28.6715C433.352 15.8689 422.572 6.36737 409.776 2.25144C396.981 -1.8645 383.216 -0.258711 371.501 6.7165Z" fill="#F2F2F2"/>
<path d="M378.437 20.6255L349.877 37.6765L61.6975 209.728L33.1381 226.778C24.8061 231.766 18.6224 240.167 15.9437 250.137C13.265 260.107 14.3101 270.833 18.8497 279.961L240.073 723.612C244.631 732.729 252.309 739.496 261.42 742.427C270.532 745.358 280.335 744.214 288.677 739.247L288.739 739.21L633.913 533.132L633.976 533.094C642.308 528.106 648.491 519.706 651.17 509.736C653.848 499.765 652.803 489.04 648.264 479.912L427.04 36.2603C422.482 27.1434 414.805 20.3771 405.693 17.446C396.582 14.515 386.779 15.6584 378.437 20.6255Z" fill="white"/>
<path d="M383.199 158.335L254.462 235.194C252.512 236.359 250.219 236.628 248.087 235.942C245.956 235.256 244.161 233.672 243.096 231.538C242.032 229.404 241.786 226.895 242.413 224.563C243.04 222.23 244.487 220.266 246.438 219.102L375.174 142.242C377.125 141.078 379.418 140.809 381.549 141.495C383.681 142.18 385.476 143.764 386.54 145.898C387.604 148.032 387.85 150.542 387.223 152.874C386.597 155.206 385.149 157.171 383.199 158.335H383.199Z" fill="#F2F2F2"/>
<path d="M427.073 167.382L268.003 262.351C266.053 263.515 263.76 263.784 261.629 263.098C259.497 262.413 257.702 260.829 256.638 258.695C255.574 256.561 255.328 254.051 255.954 251.719C256.581 249.387 258.029 247.422 259.979 246.258L419.049 151.289C420.015 150.712 421.074 150.35 422.168 150.221C423.262 150.093 424.368 150.202 425.424 150.541C426.479 150.881 427.463 151.444 428.319 152.2C429.176 152.956 429.888 153.888 430.415 154.945C430.941 156.002 431.273 157.162 431.39 158.358C431.507 159.555 431.408 160.766 431.098 161.921C430.788 163.075 430.272 164.152 429.582 165.089C428.891 166.026 428.039 166.805 427.073 167.382H427.073Z" fill="#F2F2F2"/>
<path d="M201.537 203.201L82.8496 274.06C81.9153 274.618 81.2218 275.56 80.9216 276.677C80.6214 277.795 80.7391 278.997 81.2487 280.019L131.789 381.375C132.299 382.397 133.159 383.156 134.18 383.485C135.202 383.813 136.3 383.685 137.235 383.127L255.923 312.267C256.857 311.709 257.55 310.768 257.851 309.65C258.151 308.533 258.033 307.331 257.523 306.308L206.983 204.953C206.473 203.93 205.613 203.171 204.592 202.843C203.571 202.514 202.472 202.643 201.537 203.201Z" fill="#F2F2F2"/>
<path d="M447.075 286.939L272.46 391.189C271.494 391.765 270.434 392.128 269.34 392.256C268.246 392.385 267.14 392.276 266.085 391.937C265.029 391.597 264.045 391.033 263.189 390.278C262.333 389.522 261.621 388.59 261.094 387.533C260.567 386.476 260.235 385.316 260.118 384.119C260.001 382.923 260.1 381.712 260.41 380.557C260.721 379.403 261.236 378.326 261.926 377.389C262.617 376.452 263.469 375.673 264.435 375.096L439.05 270.846C441 269.682 443.294 269.413 445.425 270.099C447.557 270.784 449.352 272.368 450.416 274.502C451.48 276.636 451.726 279.146 451.099 281.478C450.473 283.81 449.025 285.775 447.075 286.939H447.075Z" fill="#F2F2F2"/>
<path d="M490.949 295.986L286.001 418.345C284.051 419.51 281.757 419.779 279.626 419.093C277.494 418.407 275.699 416.823 274.635 414.689C273.571 412.555 273.325 410.046 273.952 407.714C274.578 405.381 276.026 403.417 277.976 402.253L482.925 279.893C484.875 278.729 487.168 278.46 489.3 279.145C491.431 279.831 493.226 281.415 494.291 283.549C495.355 285.683 495.601 288.192 494.974 290.525C494.347 292.857 492.9 294.821 490.949 295.986H490.949Z" fill="#F2F2F2"/>
<path d="M205.958 476.566C225.585 476.566 241.497 459.156 241.497 437.679C241.497 416.202 225.585 398.792 205.958 398.792C186.33 398.792 170.419 416.202 170.419 437.679C170.419 459.156 186.33 476.566 205.958 476.566Z" fill="#F2F2F2"/>
<path d="M737.697 189.521H344.344C331.007 189.538 318.221 195.342 308.79 205.661C299.36 215.98 294.055 229.971 294.04 244.564V749.957C294.055 764.55 299.36 778.541 308.79 788.86C318.221 799.179 331.007 804.984 344.344 805H737.697C751.033 804.984 763.819 799.179 773.25 788.86C782.68 778.541 787.985 764.55 788 749.957V244.564C787.985 229.971 782.68 215.98 773.25 205.661C763.819 195.342 751.033 189.538 737.697 189.521Z" fill="#E6E6E6"/>
<path d="M737.697 205.367H344.344C334.846 205.378 325.741 209.512 319.025 216.86C312.309 224.209 308.532 234.172 308.521 244.564V749.957C308.532 760.349 312.309 770.312 319.025 777.661C325.741 785.009 334.846 789.143 344.344 789.154H737.697C747.194 789.143 756.299 785.009 763.015 777.661C769.731 770.312 773.508 760.349 773.519 749.957V244.564C773.508 234.172 769.731 224.209 763.015 216.86C756.3 209.512 747.194 205.379 737.697 205.367Z" fill="white"/>
<path d="M681.598 328.748H534.945C532.724 328.748 530.593 327.783 529.022 326.064C527.451 324.345 526.568 322.013 526.568 319.582C526.568 317.151 527.451 314.82 529.022 313.101C530.593 311.382 532.724 310.416 534.945 310.416H681.598C682.699 310.415 683.789 310.651 684.807 311.111C685.824 311.571 686.749 312.246 687.527 313.097C688.306 313.949 688.924 314.959 689.346 316.072C689.767 317.185 689.984 318.378 689.984 319.582C689.984 320.787 689.767 321.98 689.346 323.092C688.924 324.205 688.306 325.216 687.527 326.067C686.749 326.919 685.824 327.594 684.807 328.054C683.789 328.514 682.699 328.75 681.598 328.748Z" fill="#F9A826"/>
<path d="M716.153 359.684H534.945C532.724 359.684 530.593 358.718 529.022 356.999C527.451 355.28 526.568 352.949 526.568 350.518C526.568 348.087 527.451 345.755 529.022 344.036C530.593 342.317 532.724 341.352 534.945 341.352H716.153C718.374 341.352 720.505 342.317 722.076 344.036C723.647 345.755 724.53 348.087 724.53 350.518C724.53 352.949 723.647 355.28 722.076 356.999C720.505 358.718 718.374 359.684 716.153 359.684Z" fill="#F9A826"/>
<path d="M502.491 272.926H367.285C366.221 272.926 365.2 273.389 364.448 274.213C363.695 275.036 363.272 276.153 363.272 277.318V392.779C363.272 393.944 363.695 395.061 364.448 395.884C365.2 396.708 366.221 397.171 367.285 397.171H502.491C503.555 397.171 504.576 396.708 505.329 395.884C506.081 395.061 506.504 393.944 506.504 392.779V277.318C506.504 276.153 506.081 275.036 505.329 274.213C504.576 273.389 503.555 272.926 502.491 272.926Z" fill="#E6E6E6"/>
<path d="M404.373 343.827C404.429 353.574 401.146 362.991 395.171 370.22C389.259 377.32 380.457 382.028 371.576 380.08C363.397 378.286 356.751 370.465 357.581 361.003C357.718 358.953 358.262 356.961 359.176 355.166C360.089 353.37 361.349 351.814 362.868 350.606C364.387 349.398 366.129 348.567 367.972 348.171C369.815 347.775 371.714 347.823 373.538 348.313C381.307 350.519 384.403 362.771 377.929 368.522C376.376 369.901 374.144 367.488 375.712 366.095C379.991 362.294 378.669 353.977 373.504 351.891C367.49 349.463 361.117 354.686 360.685 361.413C360.172 369.39 365.757 375.397 372.605 376.812C380.014 378.342 387.36 374.192 392.38 368.465C398.133 361.815 401.308 352.984 401.237 343.827C401.252 343.382 401.423 342.961 401.715 342.652C402.008 342.343 402.399 342.17 402.805 342.17C403.212 342.17 403.603 342.343 403.895 342.652C404.188 342.961 404.359 343.382 404.373 343.827Z" fill="#2F2E41"/>
<path d="M434.993 365.64C465.889 365.64 490.935 338.234 490.935 304.427C490.935 270.621 465.889 243.215 434.993 243.215C404.097 243.215 379.051 270.621 379.051 304.427C379.051 338.234 404.097 365.64 434.993 365.64Z" fill="#F9A826"/>
<path d="M432.131 330.546L432.073 328.259C435.962 328.14 439.391 327.873 441.967 325.814C442.698 325.196 443.298 324.414 443.728 323.521C444.157 322.627 444.406 321.643 444.456 320.634C444.502 320.018 444.416 319.399 444.207 318.825C443.998 318.251 443.671 317.737 443.251 317.324C441.541 315.743 438.789 316.255 436.783 317.261L435.054 318.129L438.371 291.605L440.442 291.916L437.62 314.478C440.346 313.601 442.871 313.979 444.601 315.577C445.265 316.211 445.786 317.005 446.123 317.896C446.461 318.788 446.605 319.752 446.545 320.715C446.484 322.069 446.153 323.393 445.575 324.593C444.998 325.793 444.187 326.84 443.2 327.661C439.89 330.308 435.588 330.44 432.131 330.546Z" fill="#2F2E41"/>
<path d="M461.944 293.861H450.685V296.149H461.944V293.861Z" fill="#2F2E41"/>
<path d="M426.405 293.861H415.146V296.149H426.405V293.861Z" fill="#2F2E41"/>
<path d="M404.005 397.171C408.199 394.26 412.73 391.978 417.479 390.388C417.026 388.626 417.033 386.76 417.5 385.001C418.13 382.78 419.4 380.842 421.12 379.475C422.84 378.108 424.918 377.387 427.043 377.418H440.673C442.802 377.389 444.883 378.112 446.607 379.48C448.33 380.849 449.604 382.789 450.238 385.013C450.705 386.767 450.712 388.63 450.258 390.388C455.006 391.98 459.538 394.262 463.732 397.171H404.005Z" fill="#2F2E41"/>
<path d="M499.073 281.71C498.053 280.359 496.799 279.244 495.383 278.427C494.141 277.718 492.76 277.345 491.359 277.341C489.434 277.367 487.565 278.055 486.018 279.308C481.763 282.602 478.815 289.705 478.815 297.928C478.815 308.245 483.456 316.8 489.488 318.287C490.102 318.438 490.729 318.514 491.359 318.516C498.268 318.516 503.902 309.286 503.902 297.928C503.902 291.34 502.01 285.473 499.073 281.71Z" fill="#3F3D56"/>
<path d="M384.177 278.816H384.167C382.769 277.867 381.16 277.356 379.515 277.341C378.113 277.345 376.733 277.718 375.491 278.427C374.074 279.244 372.82 280.359 371.801 281.71L371.79 281.721C368.864 285.484 366.972 291.352 366.972 297.928C366.972 306.804 370.4 314.375 375.209 317.269C376.525 318.076 378.006 318.505 379.515 318.516C379.851 318.516 380.186 318.493 380.519 318.447H380.529C386.968 317.601 392.058 308.725 392.058 297.928C392.058 289.281 388.787 281.859 384.177 278.816Z" fill="#3F3D56"/>
<path d="M375.993 315.301C376.241 315.301 376.487 315.236 376.708 315.111C376.929 314.987 377.121 314.806 377.266 314.585C377.411 314.364 377.506 314.108 377.543 313.839C377.58 313.57 377.558 313.294 377.478 313.036C374.482 303.286 373.58 292.91 374.844 282.716C376.108 272.523 379.503 262.785 384.765 254.26C390.027 245.736 397.015 238.653 405.186 233.564C413.356 228.475 422.489 225.516 431.874 224.917C441.26 224.317 450.645 226.094 459.301 230.109C467.957 234.124 475.65 240.269 481.783 248.066C487.915 255.864 492.322 265.103 494.661 275.067C496.999 285.031 497.207 295.451 495.267 305.517C495.181 305.962 495.26 306.426 495.487 306.807C495.714 307.188 496.07 307.455 496.477 307.549C496.884 307.643 497.308 307.556 497.657 307.308C498.005 307.06 498.249 306.67 498.335 306.225C500.376 295.642 500.159 284.686 497.701 274.21C495.243 263.734 490.61 254.019 484.163 245.82C477.715 237.622 469.627 231.161 460.526 226.939C451.425 222.717 441.558 220.849 431.69 221.479C421.822 222.11 412.219 225.221 403.629 230.573C395.039 235.924 387.693 243.371 382.161 252.335C376.629 261.298 373.06 271.537 371.733 282.255C370.405 292.973 371.355 303.882 374.507 314.133C374.612 314.473 374.812 314.769 375.078 314.978C375.345 315.188 375.664 315.301 375.993 315.301Z" fill="#3F3D56"/>
<path d="M463.095 264.767C465.311 268.076 464.219 272.535 461.885 275.387C458.848 279.099 454.005 279.333 449.8 278.644C445.081 277.871 440.076 275.452 435.299 277.083C431.227 278.472 428.322 282.513 424.092 283.528C420.341 284.428 415.855 283.237 414.539 278.861C413.908 276.759 416.935 275.858 417.563 277.949C418.414 280.78 422.088 280.723 424.192 279.939C427.565 278.683 430.164 275.626 433.479 274.166C437.388 272.445 441.629 273.222 445.608 274.203C449.359 275.127 453.675 276.497 457.412 274.771C460.177 273.493 462.377 269.47 460.388 266.499C459.194 264.716 461.914 263.002 463.095 264.767Z" fill="#2F2E41"/>
<path d="M681.377 475.118H482.461C481.361 475.118 480.272 474.881 479.256 474.42C478.239 473.96 477.316 473.285 476.538 472.433C475.76 471.582 475.143 470.572 474.722 469.46C474.301 468.348 474.084 467.156 474.084 465.952C474.084 464.748 474.301 463.556 474.722 462.444C475.143 461.332 475.76 460.322 476.538 459.471C477.316 458.619 478.239 457.944 479.256 457.484C480.272 457.023 481.361 456.786 482.461 456.786H681.377C683.597 456.789 685.726 457.756 687.294 459.474C688.863 461.193 689.745 463.523 689.745 465.952C689.745 468.381 688.863 470.711 687.294 472.43C685.726 474.148 683.597 475.115 681.377 475.118Z" fill="#E6E6E6"/>
<path d="M715.932 506.054H482.461C481.36 506.055 480.27 505.819 479.253 505.359C478.235 504.899 477.311 504.224 476.532 503.373C475.753 502.521 475.135 501.51 474.714 500.398C474.292 499.285 474.075 498.092 474.075 496.888C474.075 495.683 474.292 494.49 474.714 493.378C475.135 492.265 475.753 491.254 476.532 490.403C477.311 489.551 478.235 488.876 479.253 488.416C480.27 487.956 481.36 487.72 482.461 487.722H715.932C717.033 487.72 718.123 487.956 719.14 488.416C720.158 488.876 721.082 489.551 721.861 490.403C722.64 491.254 723.258 492.265 723.68 493.378C724.101 494.49 724.318 495.683 724.318 496.888C724.318 498.092 724.101 499.285 723.68 500.398C723.258 501.51 722.64 502.521 721.861 503.373C721.082 504.224 720.158 504.899 719.14 505.359C718.123 505.819 717.033 506.055 715.932 506.054Z" fill="#E6E6E6"/>
<path d="M681.377 586.306H482.461C480.24 586.306 478.109 585.34 476.538 583.621C474.967 581.902 474.084 579.57 474.084 577.139C474.084 574.709 474.967 572.377 476.538 570.658C478.109 568.939 480.24 567.973 482.461 567.973H681.377C683.599 567.973 685.73 568.939 687.301 570.658C688.872 572.377 689.754 574.709 689.754 577.139C689.754 579.57 688.872 581.902 687.301 583.621C685.73 585.34 683.599 586.306 681.377 586.306Z" fill="#E6E6E6"/>
<path d="M715.932 617.241H482.461C480.24 617.241 478.109 616.276 476.538 614.557C474.967 612.838 474.084 610.506 474.084 608.075C474.084 605.644 474.967 603.313 476.538 601.594C478.109 599.875 480.24 598.909 482.461 598.909H715.932C718.154 598.909 720.284 599.875 721.855 601.594C723.426 603.313 724.309 605.644 724.309 608.075C724.309 610.506 723.426 612.838 721.855 614.557C720.284 616.276 718.154 617.241 715.932 617.241Z" fill="#E6E6E6"/>
<path d="M403.734 519.963C423.362 519.963 439.273 502.553 439.273 481.076C439.273 459.599 423.362 442.188 403.734 442.188C384.106 442.188 368.195 459.599 368.195 481.076C368.195 502.553 384.106 519.963 403.734 519.963Z" fill="#E6E6E6"/>
<path d="M403.734 632.05C423.362 632.05 439.273 614.64 439.273 593.163C439.273 571.686 423.362 554.275 403.734 554.275C384.106 554.275 368.195 571.686 368.195 593.163C368.195 614.64 384.106 632.05 403.734 632.05Z" fill="#E6E6E6"/>
<path d="M681.377 698.393H482.461C480.24 698.393 478.109 697.427 476.538 695.708C474.967 693.989 474.084 691.658 474.084 689.227C474.084 686.795 474.967 684.464 476.538 682.745C478.109 681.026 480.24 680.06 482.461 680.06H681.377C683.599 680.06 685.73 681.026 687.301 682.745C688.872 684.464 689.754 686.795 689.754 689.227C689.754 691.658 688.872 693.989 687.301 695.708C685.73 697.427 683.599 698.393 681.377 698.393Z" fill="#E6E6E6"/>
<path d="M715.932 729.328H482.461C480.24 729.328 478.109 728.362 476.538 726.643C474.967 724.924 474.084 722.593 474.084 720.162C474.084 717.731 474.967 715.4 476.538 713.681C478.109 711.962 480.24 710.996 482.461 710.996H715.932C718.154 710.996 720.284 711.962 721.855 713.681C723.426 715.4 724.309 717.731 724.309 720.162C724.309 722.593 723.426 724.924 721.855 726.643C720.284 728.362 718.154 729.328 715.932 729.328Z" fill="#E6E6E6"/>
<path d="M403.734 744.137C423.362 744.137 439.273 726.727 439.273 705.25C439.273 683.773 423.362 666.362 403.734 666.362C384.106 666.362 368.195 683.773 368.195 705.25C368.195 726.727 384.106 744.137 403.734 744.137Z" fill="#E6E6E6"/>
</svg>
