<svg width="60" height="60" viewBox="0 0 60 60" fill="none" xmlns="http://www.w3.org/2000/svg">
<g clip-path="url(#clip0)">
<path d="M37.5 16.25C36.12 16.25 35 15.13 35 13.75V10H25V13.75C25 15.13 23.88 16.25 22.5 16.25C21.12 16.25 20 15.13 20 13.75V10C20 7.2425 22.2425 5 25 5H35C37.7575 5 40 7.2425 40 10V13.75C40 15.13 38.88 16.25 37.5 16.25Z" fill="#F9A826"/>
<path d="M31.775 38.45C31.325 38.625 30.675 38.75 30 38.75C29.325 38.75 28.675 38.625 28.075 38.4L0 29.05V48.125C0 51.925 3.075 55 6.875 55H53.125C56.925 55 60 51.925 60 48.125V29.05L31.775 38.45Z" fill="#F9A826"/>
<path d="M60 19.375V25.1L30.6 34.9C30.4 34.975 30.2 35 30 35C29.8 35 29.6 34.975 29.4 34.9L0 25.1V19.375C0 15.575 3.075 12.5 6.875 12.5H53.125C56.925 12.5 60 15.575 60 19.375Z" fill="#F9A826"/>
</g>
<defs>
<clipPath id="clip0">
<rect width="60" height="60" fill="white"/>
</clipPath>
</defs>
</svg>
