<svg width="60" height="60" viewBox="0 0 60 60" fill="none" xmlns="http://www.w3.org/2000/svg">
<g clip-path="url(#clip0)">
<path d="M22.3364 45.6192C19.3859 46.4138 16.6807 46.2655 14.0697 44.3693C11.926 42.8124 10.6001 40.4239 10.3865 37.7902L2.8077 49.1034C1.93805 50.4012 2.86746 52.1562 4.43684 52.1562H11.0693L14.4489 58.9164C15.1365 60.289 17.0562 60.3742 17.8668 59.0779L24.8004 47.975C23.6245 47.1998 23.1194 46.5855 22.3364 45.6192Z" fill="#F9A826"/>
<path d="M57.1923 49.1029L49.1817 37.1553C49.0173 40.4219 47.6353 42.7836 45.4503 44.3699C42.8098 46.2878 40.0987 46.4019 37.1847 45.6185C36.4889 46.4768 36.0841 46.9935 35.0494 47.7442L42.1334 59.0784C42.9446 60.3743 44.8639 60.2882 45.5513 58.9163L48.9309 52.1561H55.5634C57.1331 52.1561 58.0619 50.3991 57.1923 49.1029Z" fill="#F9A826"/>
<path d="M49.6303 21.9661C50.8252 20.1284 52.2991 18.4462 51.419 15.7351C50.5428 13.0364 48.3887 12.5428 46.1322 11.679C45.6943 11.5112 45.3942 11.0993 45.37 10.6308C45.2495 8.28353 45.4653 6.03282 43.1459 4.34802C40.85 2.68102 38.8185 3.54762 36.4853 4.17505C36.0359 4.29634 35.5495 4.14059 35.2519 3.77427C33.7733 1.94532 32.6256 0 29.7606 0C26.9293 0 25.7999 1.88121 24.2682 3.77532C23.9732 4.14048 23.4918 4.2968 23.0375 4.17493C20.7655 3.56403 18.6946 2.66403 16.3755 4.3486C14.0792 6.01536 14.2753 8.21826 14.1514 10.6314C14.127 11.0999 13.8283 11.5111 13.3905 11.6789C11.1956 12.519 8.98947 13.0087 8.10224 15.735C7.22567 18.4349 8.67447 20.0941 9.99693 22.125C10.2523 22.5183 10.2523 23.0265 9.99693 23.4196C8.72486 25.3722 7.21395 27.0741 8.10224 29.8103C8.98056 32.5083 11.1281 32.9999 13.3905 33.866C13.8284 34.0338 14.1271 34.445 14.1514 34.9142C14.2717 37.258 14.0556 39.5127 16.3755 41.1964C18.6709 42.8642 20.7028 41.9979 23.0361 41.3701C23.4918 41.2481 23.9732 41.4058 24.2695 41.7709C25.7467 43.599 26.8925 45.5449 29.7606 45.5449C32.598 45.5449 33.7296 43.6536 35.2531 41.7703C35.5481 41.4038 36.0397 41.2475 36.4838 41.37C38.769 41.9836 40.8303 42.8793 43.1458 41.197C45.4415 39.5295 45.2458 37.3292 45.3699 34.9162C45.3943 34.4457 45.6942 34.034 46.1321 33.8661C48.3228 33.0275 50.5343 32.5356 51.4189 29.8104C52.2835 27.1475 50.8763 25.4951 49.629 23.5775C49.3099 23.0883 49.3099 22.4563 49.6303 21.9661ZM29.7606 34.5386C23.2723 34.5386 17.9944 29.26 17.9944 22.7723C17.9944 16.2846 23.2724 11.006 29.7606 11.006C36.2489 11.006 41.527 16.2846 41.527 22.7723C41.5269 29.26 36.2489 34.5386 29.7606 34.5386Z" fill="#F9A826"/>
<path d="M29.7606 14.9282C25.4351 14.9282 21.9164 18.4468 21.9164 22.7724C21.9164 27.0979 25.4351 30.6165 29.7606 30.6165C34.0862 30.6165 37.6048 27.0979 37.6048 22.7724C37.6048 18.4467 34.0862 14.9282 29.7606 14.9282Z" fill="#F9A826"/>
</g>
<defs>
<clipPath id="clip0">
<rect width="60" height="60" fill="white"/>
</clipPath>
</defs>
</svg>
